<?xml version="1.0" encoding="UTF-8"?>
<svg width="114px" height="114px" viewBox="0 0 114 114" version="1.1" xmlns="http://www.w3.org/2000/svg" xmlns:xlink="http://www.w3.org/1999/xlink">
    <!-- Generator: Sketch 52.2 (67145) - http://www.bohemiancoding.com/sketch -->
    <title>main_Icon_1@3x</title>
    <desc>Created with Sketch.</desc>
    <g id="main_Icon_1" stroke="none" stroke-width="1" fill="none" fill-rule="evenodd">
        <g id="online_treck" transform="translate(23.000000, 24.000000)">
            <g id="004-placeholder" fill="#ABADAF" fill-rule="nonzero">
                <path d="M33.5,28 C37.6346429,28 41,24.6346429 41,20.5 C41,16.3653571 37.6346429,13 33.5,13 C29.3653571,13 26,16.3653571 26,20.5 C26,24.6346429 29.3642857,28 33.5,28 Z M33.5,15.1428571 C36.4539286,15.1428571 38.8571429,17.5460714 38.8571429,20.5 C38.8571429,23.4539286 36.4539286,25.8571429 33.5,25.8571429 C30.5460714,25.8571429 28.1428571,23.4539286 28.1428571,20.5 C28.1428571,17.5460714 30.5460714,15.1428571 33.5,15.1428571 Z" id="Shape"></path>
                <path d="M55.0037928,40.6995783 L47.1600347,40.6995783 L50.4975477,35.8594977 C56.8012523,27.421257 55.8888308,13.5511259 48.5467401,6.17880298 C44.5804996,2.19453658 39.305323,0 33.6938759,0 C28.0835241,0 22.8083475,2.19453658 18.8410116,6.17880298 C11.498921,13.5511259 10.5864995,27.422357 16.8650111,35.8264971 L20.2255264,40.7006783 L11.9962072,40.7006783 L0,66 L67,66 L55.0037928,40.6995783 Z M18.6427544,34.5394757 C12.9480611,26.9130486 13.7640923,14.3871398 20.3909234,7.73312889 C23.9442192,4.16466941 28.6695331,2.19893665 33.6949712,2.19893665 C38.7204094,2.19893665 43.4446279,4.16466941 46.9990191,7.73312889 C53.6258501,14.3871398 54.4418814,26.9141486 48.7219952,34.5724762 L33.6938759,56.3671395 L22.8904983,40.6995783 L22.8904983,40.6995783 L18.6427544,34.5394757 Z M13.3807219,42.899615 L21.7425778,42.899615 L33.6938759,60.2326039 L45.6440786,42.899615 L53.6192781,42.899615 L63.5299503,63.7999633 L3.4700497,63.7999633 L13.3807219,42.899615 Z" id="Shape"></path>
            </g>
            <path d="M17.4235884,35.4137755 C11.3045628,27.1918407 12.1805333,13.8515187 19.3280072,6.67472947 C23.1626859,2.82368642 28.2704546,0.698936649 33.6949712,0.698936649 C39.119057,0.698936649 44.2257626,2.82337326 48.0618477,6.67464162 C55.2210886,13.863246 56.082803,27.2238057 49.9568854,35.4239726 L33.6938811,59.0095388 L21.6556227,41.5510959 L17.4235884,35.4137755 Z" id="Path" stroke="#77CA37" stroke-width="3"></path>
        </g>
    </g>
</svg>