<?xml version="1.0" encoding="UTF-8"?>
<svg width="114px" height="114px" viewBox="0 0 114 114" version="1.1" xmlns="http://www.w3.org/2000/svg" xmlns:xlink="http://www.w3.org/1999/xlink">
    <!-- Generator: Sketch 52.2 (67145) - http://www.bohemiancoding.com/sketch -->
    <title>main_Icon_3@3x</title>
    <desc>Created with Sketch.</desc>
    <g id="main_Icon_3" stroke="none" stroke-width="1" fill="none" fill-rule="evenodd">
        <g id="calculate" transform="translate(27.000000, 23.000000)" fill-rule="nonzero">
            <g id="002-technology" opacity="0.300000012" fill="#000000">
                <path d="M40.8753535,51.4121113 L31.9736098,51.4121113 C31.3714886,51.4121113 30.8836004,51.9001448 30.8836004,52.5021207 L30.8836004,61.4038644 C30.8836004,62.0058402 31.3714886,62.4938738 31.9736098,62.4938738 L40.8753535,62.4938738 C41.4774747,62.4938738 41.9653629,62.0058402 41.9653629,61.4038644 L41.9653629,52.5021207 C41.9653629,51.9001448 41.4774747,51.4121113 40.8753535,51.4121113 Z M39.7853441,60.3138549 L33.0636193,60.3138549 L33.0636193,53.5921301 L39.7853441,53.5921301 L39.7853441,60.3138549 Z" id="Shape"></path>
                <path d="M27.6135721,51.4121113 L18.7118285,51.4121113 C18.1097073,51.4121113 17.6218191,51.9001448 17.6218191,52.5021207 L17.6218191,61.4038644 C17.6218191,62.0058402 18.1097073,62.4938738 18.7118285,62.4938738 L27.6135721,62.4938738 C28.2156933,62.4938738 28.7035816,62.0058402 28.7035816,61.4038644 L28.7035816,52.5021207 C28.7035816,51.9001448 28.2156933,51.4121113 27.6135721,51.4121113 Z M26.5235627,60.3138549 L19.8018379,60.3138549 L19.8018379,53.5921301 L26.5235627,53.5921301 L26.5235627,60.3138549 Z" id="Shape"></path>
                <path d="M27.6135721,38.1503299 L18.7118285,38.1503299 C18.1097073,38.1503299 17.6218191,38.6383635 17.6218191,39.2403394 L17.6218191,48.142083 C17.6218191,48.7440589 18.1097073,49.2320924 18.7118285,49.2320924 L27.6135721,49.2320924 C28.2156933,49.2320924 28.7035816,48.7440589 28.7035816,48.142083 L28.7035816,39.2403394 C28.7035816,38.6383635 28.2156933,38.1503299 27.6135721,38.1503299 Z M26.5235627,47.0520736 L19.8018379,47.0520736 L19.8018379,40.3303488 L26.5235627,40.3303488 L26.5235627,47.0520736 Z" id="Shape"></path>
                <path d="M14.3517908,51.4121113 L5.45004713,51.4121113 C4.84792593,51.4121113 4.36003771,51.9001448 4.36003771,52.5021207 L4.36003771,61.4038644 C4.36003771,62.0058402 4.84792593,62.4938738 5.45004713,62.4938738 L14.3517908,62.4938738 C14.953912,62.4938738 15.4418002,62.0058402 15.4418002,61.4038644 L15.4418002,52.5021207 C15.4418002,51.9001448 14.953912,51.4121113 14.3517908,51.4121113 Z M13.2617814,60.3138549 L6.54005656,60.3138549 L6.54005656,53.5921301 L13.2617814,53.5921301 L13.2617814,60.3138549 Z" id="Shape"></path>
                <path d="M54.1371349,29.4302545 L45.2353912,29.4302545 C44.63327,29.4302545 44.1453818,29.9182881 44.1453818,30.5202639 L44.1453818,34.8803017 C44.1453818,35.4822775 44.63327,35.9703111 45.2353912,35.9703111 L54.1371349,35.9703111 C54.7392561,35.9703111 55.2271443,35.4822775 55.2271443,34.8803017 L55.2271443,30.5202639 C55.2271443,29.9182881 54.7392561,29.4302545 54.1371349,29.4302545 Z M53.0471254,33.7902922 L46.3254006,33.7902922 L46.3254006,31.6102734 L53.0471254,31.6102734 L53.0471254,33.7902922 Z" id="Shape"></path>
                <path d="M40.8753535,38.1503299 L31.9736098,38.1503299 C31.3714886,38.1503299 30.8836004,38.6383635 30.8836004,39.2403394 L30.8836004,48.142083 C30.8836004,48.7440589 31.3714886,49.2320924 31.9736098,49.2320924 L40.8753535,49.2320924 C41.4774747,49.2320924 41.9653629,48.7440589 41.9653629,48.142083 L41.9653629,39.2403394 C41.9653629,38.6383635 41.4774747,38.1503299 40.8753535,38.1503299 Z M39.7853441,47.0520736 L33.0636193,47.0520736 L33.0636193,40.3303488 L39.7853441,40.3303488 L39.7853441,47.0520736 Z" id="Shape"></path>
                <path d="M14.3517908,38.1503299 L5.45004713,38.1503299 C4.84792593,38.1503299 4.36003771,38.6383635 4.36003771,39.2403394 L4.36003771,48.142083 C4.36003771,48.7440589 4.84792593,49.2320924 5.45004713,49.2320924 L14.3517908,49.2320924 C14.953912,49.2320924 15.4418002,48.7440589 15.4418002,48.142083 L15.4418002,39.2403394 C15.4418002,38.6383635 14.953912,38.1503299 14.3517908,38.1503299 Z M13.2617814,47.0520736 L6.54005656,47.0520736 L6.54005656,40.3303488 L13.2617814,40.3303488 L13.2617814,47.0520736 Z" id="Shape"></path>
                <path d="M40.8753535,29.4302545 L31.9736098,29.4302545 C31.3714886,29.4302545 30.8836004,29.9182881 30.8836004,30.5202639 L30.8836004,34.8803017 C30.8836004,35.4822775 31.3714886,35.9703111 31.9736098,35.9703111 L40.8753535,35.9703111 C41.4774747,35.9703111 41.9653629,35.4822775 41.9653629,34.8803017 L41.9653629,30.5202639 C41.9653629,29.9182881 41.4774747,29.4302545 40.8753535,29.4302545 Z M39.7853441,33.7902922 L33.0636193,33.7902922 L33.0636193,31.6102734 L39.7853441,31.6102734 L39.7853441,33.7902922 Z" id="Shape"></path>
                <path d="M54.1371349,0 L5.45004713,0 C2.44481848,0 0,2.44481848 0,5.45004713 L0,62.8572103 C0,65.8624389 2.44481848,68.3072574 5.45004713,68.3072574 L54.1371349,68.3072574 C57.1423635,68.3072574 59.587182,65.8624389 59.587182,62.8572103 L59.587182,5.45004713 C59.587182,2.44481848 57.1423635,0 54.1371349,0 Z M57.4071631,62.8572103 C57.4071631,64.6603765 55.9401558,66.1272385 54.1371349,66.1272385 L5.45004713,66.1272385 C3.64702621,66.1272385 2.18001885,64.6603765 2.18001885,62.8572103 L2.18001885,5.45004713 C2.18001885,3.64688087 3.64702621,2.18001885 5.45004713,2.18001885 L54.1371349,2.18001885 C55.9401558,2.18001885 57.4071631,3.64688087 57.4071631,5.45004713 L57.4071631,62.8572103 Z" id="Shape"></path>
                <path d="M54.1371349,38.1503299 L45.2353912,38.1503299 C44.63327,38.1503299 44.1453818,38.6383635 44.1453818,39.2403394 L44.1453818,61.4038644 C44.1453818,62.0058402 44.63327,62.4938738 45.2353912,62.4938738 L54.1371349,62.4938738 C54.7392561,62.4938738 55.2271443,62.0058402 55.2271443,61.4038644 L55.2271443,47.9604148 C55.2271443,47.3584389 54.7392561,46.8704053 54.1371349,46.8704053 C53.5350136,46.8704053 53.0471254,47.3584389 53.0471254,47.9604148 L53.0471254,60.3138549 L46.3254006,60.3138549 L46.3254006,40.3303488 L53.0471254,40.3303488 L53.0471254,43.6003771 C53.0471254,44.2023529 53.5350136,44.6903865 54.1371349,44.6903865 C54.7392561,44.6903865 55.2271443,44.2023529 55.2271443,43.6003771 L55.2271443,39.2403394 C55.2271443,38.6383635 54.7392561,38.1503299 54.1371349,38.1503299 Z" id="Shape"></path>
                <path d="M45.4170594,12.3534402 L49.7770971,12.3534402 C50.3792184,12.3534402 50.8671066,11.8654066 50.8671066,11.2634307 C50.8671066,10.6614549 50.3792184,10.1734213 49.7770971,10.1734213 L45.4170594,10.1734213 C44.8149382,10.1734213 44.32705,10.6614549 44.32705,11.2634307 C44.32705,11.8654066 44.8149382,12.3534402 45.4170594,12.3534402 Z" id="Shape"></path>
                <path d="M45.4170594,21.0735156 L49.7770971,21.0735156 C50.3792184,21.0735156 50.8671066,20.585482 50.8671066,19.9835062 C50.8671066,19.3815303 50.3792184,18.8934967 49.7770971,18.8934967 L45.4170594,18.8934967 C44.8149382,18.8934967 44.32705,19.3815303 44.32705,19.9835062 C44.32705,20.585482 44.8149382,21.0735156 45.4170594,21.0735156 Z" id="Shape"></path>
                <path d="M44.32705,17.0768144 C44.32705,17.6787902 44.8149382,18.1668238 45.4170594,18.1668238 C46.0191806,18.1668238 46.5070689,17.6787902 46.5070689,17.0768144 L46.5070689,14.1701225 C46.5070689,13.5681467 46.0191806,13.0801131 45.4170594,13.0801131 C44.8149382,13.0801131 44.32705,13.5681467 44.32705,14.1701225 L44.32705,17.0768144 Z" id="Shape"></path>
            </g>
            <path d="M54.1371349,5.81338361 L5.45004713,5.81338361 C4.84792593,5.81338361 4.36003771,6.30141716 4.36003771,6.90339304 L4.36003771,24.7068803 C4.36003771,25.3088562 4.84792593,25.7968898 5.45004713,25.7968898 L14.3517908,25.7968898 C14.953912,25.7968898 15.4418002,25.3088562 15.4418002,24.7068803 C15.4418002,24.1049045 14.953912,23.6168709 14.3517908,23.6168709 L6.54005656,23.6168709 L6.54005656,7.99340246 L53.0471254,7.99340246 L53.0471254,23.6168709 L18.7118285,23.6168709 C18.1097073,23.6168709 17.6218191,24.1049045 17.6218191,24.7068803 C17.6218191,25.3088562 18.1097073,25.7968898 18.7118285,25.7968898 L54.1371349,25.7968898 C54.7392561,25.7968898 55.2271443,25.3088562 55.2271443,24.7068803 L55.2271443,6.90339304 C55.2271443,6.30141716 54.7392561,5.81338361 54.1371349,5.81338361 Z" id="Shape" fill="#77CA37"></path>
        </g>
    </g>
</svg>