<?xml version="1.0" encoding="UTF-8"?>
<svg width="114px" height="114px" viewBox="0 0 114 114" version="1.1" xmlns="http://www.w3.org/2000/svg" xmlns:xlink="http://www.w3.org/1999/xlink">
    <!-- Generator: Sketch 52.2 (67145) - http://www.bohemiancoding.com/sketch -->
    <title>main_Icon_2@3x</title>
    <desc>Created with Sketch.</desc>
    <g id="main_Icon_2" stroke="none" stroke-width="1" fill="none" fill-rule="evenodd">
        <g id="001-chauffer" transform="translate(23.000000, 23.000000)" fill-rule="nonzero">
            <path d="M34.2686002,0 C15.3727405,0 0,15.3727782 0,34.2686842 C0,53.1645902 15.3727405,68.5373684 34.2686002,68.5373684 C53.1644599,68.5373684 68.5373684,53.1644222 68.5373684,34.2686842 C68.5373684,15.3729462 53.1644599,0 34.2686002,0 Z M34.2686002,66.5214646 C16.4843407,66.5214646 2.01589883,52.0528193 2.01589883,34.2686842 C2.01589883,16.4845491 16.4843407,2.01590377 34.2686002,2.01590377 C52.0528597,2.01590377 66.5213016,16.4843811 66.5213016,34.2686842 C66.5213016,52.0529873 52.0528597,66.5214646 34.2686002,66.5214646 Z" id="Shape" fill="#ABADAF"></path>
            <path d="M43.541387,34.6717594 C43.541387,29.7812258 39.5624261,25.8023034 34.6718452,25.8023034 C29.7812643,25.8023034 25.8023034,29.7812258 25.8023034,34.6717594 C25.8023034,39.5624646 29.7810927,43.541387 34.6718452,43.541387 C39.5625977,43.541387 43.541387,39.5624646 43.541387,34.6717594 Z M34.6718452,41.4816368 C30.9170559,41.4816368 27.8620735,38.426684 27.8620735,34.6717594 C27.8620735,30.9168348 30.9168843,27.8620536 34.6718452,27.8620536 C38.4268061,27.8620536 41.4816169,30.9168348 41.4816169,34.6717594 C41.4816169,38.426684 38.4266345,41.4816368 34.6718452,41.4816368 Z" id="Shape" fill="#77CA37"></path>
            <path d="M61.3360046,40.1666025 C61.3354976,40.1664369 61.3341456,40.1661058 61.3339766,40.1661058 C54.485816,38.3756989 47.1205197,40.309994 42.1139367,45.2154406 C37.8041348,49.4378734 35.7264662,55.2657613 36.4136144,61.2050838 C36.4136144,61.2052494 36.4137834,61.205415 36.4137834,61.2055806 L36.4137834,61.2064085 C36.4731019,61.7132461 36.9114843,62.0867926 37.419832,62.0867926 C37.4585327,62.0867926 37.4975713,62.0844745 37.53661,62.0801694 C43.3121366,61.4310993 48.6933895,59.1086868 53.0985066,55.3637841 C57.4628951,51.653653 60.5589491,46.8194054 62.0517136,41.3837745 C62.1972214,40.8542525 61.8768001,40.3093317 61.3360046,40.1666025 Z M51.7695018,53.8631406 C47.9391489,57.1192538 43.3155166,59.2178034 38.3413813,59.9693669 C38.0562807,54.9895753 39.922701,50.1723823 43.5480586,46.6203793 C47.799049,42.4550713 53.9436685,40.6767517 59.8004835,41.8541848 C58.3224219,46.5043084 55.561492,50.6396466 51.7695018,53.8631406 Z" id="Shape" fill="#ABADAF"></path>
            <path d="M7.20322279,40.1662938 C7.2030538,40.1662938 7.2028848,40.1664594 7.2028848,40.1664594 C7.2023778,40.166625 7.20187081,40.166625 7.20136381,40.1667905 C6.66056835,40.3093508 6.34014704,40.8544243 6.48565482,41.3842649 C7.97841929,46.819767 11.0744733,51.6537346 15.4388617,55.3639433 C19.8439787,59.1085917 25.2252316,61.4311148 31.0005891,62.0801696 C31.0397968,62.0844745 31.0788354,62.0867926 31.1173671,62.0867926 C31.6257148,62.0867926 32.0642662,61.7129238 32.1235847,61.2064293 L32.1235847,61.2056014 C32.1235847,61.2054359 32.1237537,61.2052703 32.1237537,61.2051047 C32.8109019,55.2660884 30.7332333,49.438173 26.4236005,45.2158402 C21.4166795,40.3101786 14.0520593,38.3754326 7.20322279,40.1662938 Z M30.1958178,59.969086 C25.2216826,59.2177058 20.5980504,57.1190403 16.7678665,53.8630043 C12.9758763,50.6395866 10.2147775,46.5043463 8.73688492,41.8543328 C14.5933618,40.6769277 20.7381502,42.4553707 24.9894785,46.6204145 C28.6146671,50.1721678 30.4810874,54.9895778 30.1958178,59.969086 Z" id="Shape" fill="#ABADAF"></path>
            <path d="M54.3741566,13.8352293 C48.9831823,8.55318128 41.84284,5.64425387 34.2688493,5.64425387 C26.6948585,5.64425387 19.5546842,8.55318128 14.163374,13.8352293 C8.77760415,19.1119426 5.75213784,26.151617 5.64435529,33.6572465 C5.63831141,34.0820243 5.9028991,34.4641242 6.30431356,34.6104958 C6.41780423,34.6520067 6.53515626,34.6718452 6.65133309,34.6718452 C6.94630808,34.6718452 7.23356033,34.5431449 7.42864339,34.3079167 C13.4324002,27.0793596 23.4660828,22.763731 34.2686814,22.763731 C45.07128,22.763731 55.1047947,27.0793596 61.1087194,34.3079167 C61.3808619,34.6356691 61.8316347,34.756534 62.2330492,34.6103291 C62.6346316,34.4639575 62.8992192,34.0818576 62.8930075,33.6570798 C62.7855607,26.151617 59.7599265,19.1119426 54.3741566,13.8352293 Z M34.2688493,20.7633745 C23.9761192,20.7633745 14.3213544,24.5050197 7.84617487,30.8898561 C8.55750614,24.9734755 11.2466976,19.5033783 15.5784817,15.2592684 C20.5902025,10.3489843 27.2278953,7.64477705 34.2690172,7.64477705 C41.310139,7.64477705 47.9478318,10.3489843 52.9593847,15.2592684 C57.2911688,19.5033783 59.9803603,24.9734755 60.6918594,30.8898561 C54.2163442,24.5050197 44.5615793,20.7633745 34.2688493,20.7633745 Z" id="Shape" fill="#ABADAF"></path>
        </g>
    </g>
</svg>